<?xml version="1.0" encoding="utf-8"?><svg viewBox="0 0 21 20" xmlns="http://www.w3.org/2000/svg" xmlns:xlink="http://www.w3.org/1999/xlink"><style>:root>svg{display:none}:root>svg:target{display:block}</style><svg viewBox="0 0 8 5" id="angle-down" xmlns="http://www.w3.org/2000/svg"><path clip-rule="evenodd" d="M7.854.146a.5.5 0 010 .708l-3.5 3.5a.5.5 0 01-.708 0l-3.5-3.5A.5.5 0 11.854.146L4 3.293 7.146.146a.5.5 0 01.708 0z"/></svg><svg viewBox="0 0 12 8" id="arrow" xmlns="http://www.w3.org/2000/svg"><path fill-rule="evenodd" clip-rule="evenodd" d="M7.862.528c.26-.26.682-.26.943 0l3 3c.26.26.26.683 0 .943l-3 3a.667.667 0 11-.943-.943l1.862-1.862H.667a.667.667 0 010-1.333h9.057L7.862 1.471a.667.667 0 010-.943z"/></svg><svg viewBox="0 0 21 20" id="cart" xmlns="http://www.w3.org/2000/svg"><path fill-rule="evenodd" clip-rule="evenodd" d="M2.88 2.758a6.884 6.884 0 00-.447-.008H.917a.917.917 0 010-1.833h1.542c.197 0 .392 0 .559.013.185.014.401.046.625.146.314.14.582.366.774.652.137.203.206.41.252.59.04.163.074.355.108.548l.004.026L5 4.148l11.93.353c.466.014.87.026 1.203.062.352.04.7.112 1.035.29.507.27.916.692 1.171 1.207.169.34.23.69.26 1.042.026.334.026.738.026 1.206v.068c0 .44 0 .82-.025 1.136-.026.336-.083.669-.237.995A2.75 2.75 0 0119.28 11.7c-.31.184-.636.273-.967.332-.312.054-.691.091-1.129.134l-8.923.863c-.448.043-.837.081-1.16.087-.344.006-.689-.02-1.034-.148a2.75 2.75 0 01-1.289-.982c-.214-.3-.331-.624-.417-.957-.08-.314-.147-.699-.224-1.142l-1.162-6.68a6.894 6.894 0 00-.086-.449h-.01zM5.32 5.99l.617 3.548c.085.487.14.8.2 1.035.058.224.103.305.132.346.107.15.257.264.43.327.047.018.137.04.369.036a14.93 14.93 0 001.05-.082l8.856-.857c.48-.046.788-.077 1.022-.118.222-.04.305-.077.348-.102a.918.918 0 00.36-.398c.021-.044.051-.13.069-.356.018-.236.019-.545.019-1.028 0-.512-.001-.841-.021-1.093-.02-.24-.052-.33-.075-.376a.916.916 0 00-.39-.402c-.044-.023-.134-.059-.373-.085a15.34 15.34 0 00-1.093-.054l-11.52-.34zm2.472 10.052a.917.917 0 100 1.833.917.917 0 000-1.833zm-2.75.917a2.75 2.75 0 115.5 0 2.75 2.75 0 01-5.5 0zm11.458-.917a.917.917 0 100 1.833.917.917 0 000-1.833zm-2.75.917a2.75 2.75 0 115.5 0 2.75 2.75 0 01-5.5 0z"/></svg><svg viewBox="0 0 20 18" id="heart" xmlns="http://www.w3.org/2000/svg"><path fill-rule="evenodd" clip-rule="evenodd" d="M10 15.59c-3.833-2.184-5.971-4.353-7.005-6.235-1.058-1.927-.965-3.55-.378-4.702 1.206-2.367 4.638-3.124 6.728-.48L10 5l.654-.827c2.09-2.644 5.522-1.887 6.729.48.587 1.152.68 2.775-.379 4.701-1.034 1.883-3.171 4.053-7.004 6.235zm0-13.168C7.057-.373 2.72.782 1.131 3.897c-.871 1.709-.883 3.918.402 6.26 1.275 2.32 3.815 4.77 8.062 7.117l.403.223.403-.223c4.247-2.347 6.788-4.797 8.062-7.117 1.286-2.342 1.274-4.551.403-6.26C17.279.782 12.94-.373 9.999 2.422z"/></svg><svg viewBox="0 0 14 15" id="person" xmlns="http://www.w3.org/2000/svg"><path clip-rule="evenodd" d="M7 1.666a2.333 2.333 0 100 4.667 2.333 2.333 0 000-4.667zM3.335 4a3.667 3.667 0 117.333 0 3.667 3.667 0 01-7.333 0z"/><path d="M3.07 9.666c-.462 0-.824.225-.97.549-.203.447-.387.98-.43 1.486-.02.225.074.392.204.473.686.426 2.276 1.159 5.127 1.159 2.85 0 4.44-.733 5.126-1.16.13-.08.224-.247.204-.473-.043-.505-.227-1.038-.43-1.485-.146-.324-.508-.549-.97-.549H3.07zM.885 9.664c.406-.894 1.31-1.331 2.185-1.331h7.861c.874 0 1.78.437 2.185 1.331.232.513.482 1.203.544 1.922.056.655-.216 1.339-.83 1.72-.902.56-2.736 1.36-5.83 1.36-3.093 0-4.927-.8-5.83-1.36-.613-.381-.885-1.065-.829-1.72.062-.719.312-1.409.544-1.922z"/></svg><svg viewBox="0 0 16 16" id="search" xmlns="http://www.w3.org/2000/svg"><path fill-rule="evenodd" clip-rule="evenodd" d="M7.25 2.166a5.083 5.083 0 100 10.167 5.083 5.083 0 000-10.167zM.835 7.25a6.417 6.417 0 1111.399 4.044l2.739 2.734a.667.667 0 11-.942.944l-2.74-2.736A6.417 6.417 0 01.834 7.25z"/></svg></svg>