<?xml version="1.0" encoding="utf-8"?><svg viewBox="0 0 122.88 117.19" xmlns="http://www.w3.org/2000/svg" xmlns:xlink="http://www.w3.org/1999/xlink"><style>:root>svg{display:none}:root>svg:target{display:block}</style><svg viewBox="0 0 8 5" id="angle-down" xmlns="http://www.w3.org/2000/svg"><path clip-rule="evenodd" d="M7.854.146a.5.5 0 010 .708l-3.5 3.5a.5.5 0 01-.708 0l-3.5-3.5A.5.5 0 11.854.146L4 3.293 7.146.146a.5.5 0 01.708 0z"/></svg><svg viewBox="0 0 12 8" id="arrow" xmlns="http://www.w3.org/2000/svg"><path fill-rule="evenodd" clip-rule="evenodd" d="M7.862.528c.26-.26.682-.26.943 0l3 3c.26.26.26.683 0 .943l-3 3a.667.667 0 11-.943-.943l1.862-1.862H.667a.667.667 0 010-1.333h9.057L7.862 1.471a.667.667 0 010-.943z"/></svg><svg viewBox="0 0 21 20" id="cart" xmlns="http://www.w3.org/2000/svg"><path fill-rule="evenodd" clip-rule="evenodd" d="M2.88 2.758a6.884 6.884 0 00-.447-.008H.917a.917.917 0 010-1.833h1.542c.197 0 .392 0 .559.013.185.014.401.046.625.146.314.14.582.366.774.652.137.203.206.41.252.59.04.163.074.355.108.548l.004.026L5 4.148l11.93.353c.466.014.87.026 1.203.062.352.04.7.112 1.035.29.507.27.916.692 1.171 1.207.169.34.23.69.26 1.042.026.334.026.738.026 1.206v.068c0 .44 0 .82-.025 1.136-.026.336-.083.669-.237.995A2.75 2.75 0 0119.28 11.7c-.31.184-.636.273-.967.332-.312.054-.691.091-1.129.134l-8.923.863c-.448.043-.837.081-1.16.087-.344.006-.689-.02-1.034-.148a2.75 2.75 0 01-1.289-.982c-.214-.3-.331-.624-.417-.957-.08-.314-.147-.699-.224-1.142l-1.162-6.68a6.894 6.894 0 00-.086-.449h-.01zM5.32 5.99l.617 3.548c.085.487.14.8.2 1.035.058.224.103.305.132.346.107.15.257.264.43.327.047.018.137.04.369.036a14.93 14.93 0 001.05-.082l8.856-.857c.48-.046.788-.077 1.022-.118.222-.04.305-.077.348-.102a.918.918 0 00.36-.398c.021-.044.051-.13.069-.356.018-.236.019-.545.019-1.028 0-.512-.001-.841-.021-1.093-.02-.24-.052-.33-.075-.376a.916.916 0 00-.39-.402c-.044-.023-.134-.059-.373-.085a15.34 15.34 0 00-1.093-.054l-11.52-.34zm2.472 10.052a.917.917 0 100 1.833.917.917 0 000-1.833zm-2.75.917a2.75 2.75 0 115.5 0 2.75 2.75 0 01-5.5 0zm11.458-.917a.917.917 0 100 1.833.917.917 0 000-1.833zm-2.75.917a2.75 2.75 0 115.5 0 2.75 2.75 0 01-5.5 0z"/></svg><svg viewBox="0 0 16 14" id="comments" xmlns="http://www.w3.org/2000/svg"><path fill-rule="evenodd" clip-rule="evenodd" d="M14.615 6.546a5.166 5.166 0 01-.653 1.858c.025.142.038.286.038.43 0 .502-.146.982-.415 1.419-.135.218-.17.473-.183.642a4.25 4.25 0 00.004.607c.016.228.044.468.076.693a13.78 13.78 0 00-.812-.212 5.819 5.819 0 00-.66-.115c-.181-.019-.443-.034-.676.042a5.425 5.425 0 01-1.668.258 5.365 5.365 0 01-1.92-.343 8.824 8.824 0 01-2.712-.291C6.085 12.748 7.818 13.5 9.666 13.5a6.76 6.76 0 002.054-.315h.006c.016 0 .062 0 .147.008.134.014.306.044.504.09.395.088.839.22 1.184.33a1.024 1.024 0 001.313-1.152c-.056-.32-.115-.711-.138-1.05a2.96 2.96 0 01-.004-.413.783.783 0 01.01-.083 4.009 4.009 0 00.591-2.082c0-.849-.264-1.624-.718-2.288z"/><path fill-rule="evenodd" clip-rule="evenodd" d="M3.731 3.3c-.899.687-1.398 1.589-1.398 2.534 0 .471.123.925.353 1.347.088.161.113.327.121.44.01.122.005.248-.005.365a5.847 5.847 0 01-.134.766 14.5 14.5 0 01-.255.943c.352-.128.737-.259 1.102-.365.295-.086.593-.161.858-.203.228-.036.56-.072.845.027a6.48 6.48 0 002.115.347c1.432 0 2.703-.445 3.602-1.132.899-.688 1.398-1.59 1.398-2.535 0-.945-.5-1.847-1.398-2.535-.9-.687-2.17-1.132-3.602-1.132-1.431 0-2.703.445-3.602 1.132zm-.81-1.06C4.073 1.36 5.635.834 7.333.834s3.26.526 4.412 1.406c1.152.881 1.921 2.146 1.921 3.594s-.769 2.713-1.921 3.594c-1.152.88-2.714 1.406-4.412 1.406-.895 0-1.75-.146-2.527-.412 0 .003-.064-.004-.225.022-.186.03-.423.087-.693.165a20.59 20.59 0 00-1.599.558c-.796.31-1.606-.455-1.338-1.269.142-.432.31-.977.419-1.448.055-.237.09-.436.104-.584a1.16 1.16 0 00.005-.114A4.117 4.117 0 011 5.834c0-1.448.77-2.713 1.922-3.594z"/></svg><svg viewBox="0 0 20 18" id="heart" xmlns="http://www.w3.org/2000/svg"><path fill-rule="evenodd" clip-rule="evenodd" d="M10 15.59c-3.833-2.184-5.971-4.353-7.005-6.235-1.058-1.927-.965-3.55-.378-4.702 1.206-2.367 4.638-3.124 6.728-.48L10 5l.654-.827c2.09-2.644 5.522-1.887 6.729.48.587 1.152.68 2.775-.379 4.701-1.034 1.883-3.171 4.053-7.004 6.235zm0-13.168C7.057-.373 2.72.782 1.131 3.897c-.871 1.709-.883 3.918.402 6.26 1.275 2.32 3.815 4.77 8.062 7.117l.403.223.403-.223c4.247-2.347 6.788-4.797 8.062-7.117 1.286-2.342 1.274-4.551.403-6.26C17.279.782 12.94-.373 9.999 2.422z"/></svg><svg viewBox="0 0 21 20" id="instagram" xmlns="http://www.w3.org/2000/svg"><path d="M19.98 5.88c-.046-1.063-.218-1.793-.464-2.426a4.88 4.88 0 00-1.157-1.774 4.922 4.922 0 00-1.77-1.153C15.952.281 15.226.11 14.163.063 13.093.012 12.753 0 10.037 0 7.322 0 6.982.012 5.915.059 4.853.105 4.122.277 3.49.523A4.88 4.88 0 001.715 1.68 4.924 4.924 0 00.563 3.45C.316 4.087.145 4.813.098 5.876c-.051 1.07-.063 1.41-.063 4.126 0 2.715.012 3.055.059 4.122.047 1.063.219 1.793.465 2.426a4.932 4.932 0 001.156 1.774 4.92 4.92 0 001.77 1.152c.637.247 1.364.419 2.426.465 1.067.047 1.407.059 4.122.059 2.716 0 3.056-.012 4.122-.059 1.063-.046 1.793-.218 2.426-.464a5.116 5.116 0 002.927-2.927c.246-.637.418-1.364.465-2.426.047-1.067.058-1.407.058-4.122s-.004-3.055-.05-4.122zm-1.8 8.166c-.044.977-.208 1.504-.345 1.856a3.317 3.317 0 01-1.898 1.898c-.352.137-.883.301-1.856.344-1.055.047-1.371.059-4.04.059-2.668 0-2.989-.012-4.04-.059-.977-.043-1.504-.207-1.856-.344a3.077 3.077 0 01-1.148-.746 3.11 3.11 0 01-.747-1.148c-.136-.352-.3-.883-.343-1.856-.047-1.055-.059-1.372-.059-4.04 0-2.669.012-2.99.059-4.04.043-.977.207-1.504.343-1.856A3.04 3.04 0 013 2.965a3.105 3.105 0 011.15-.746c.35-.137.882-.3 1.855-.344 1.055-.046 1.372-.058 4.04-.058 2.672 0 2.989.012 4.04.058.977.043 1.504.207 1.856.344.433.16.828.414 1.148.746.332.325.586.715.747 1.15.136.35.3.882.343 1.855.047 1.055.059 1.371.059 4.04 0 2.668-.012 2.98-.059 4.036z"/><path d="M10.037 4.864A5.139 5.139 0 004.9 10.002a5.139 5.139 0 105.138-5.138zm0 8.47a3.333 3.333 0 11.001-6.666 3.333 3.333 0 010 6.667zm6.541-8.673a1.2 1.2 0 11-2.4 0 1.2 1.2 0 012.4 0z"/></svg><svg viewBox="0 0 14 15" id="person" xmlns="http://www.w3.org/2000/svg"><path clip-rule="evenodd" d="M7 1.666a2.333 2.333 0 100 4.667 2.333 2.333 0 000-4.667zM3.335 4a3.667 3.667 0 117.333 0 3.667 3.667 0 01-7.333 0z"/><path d="M3.07 9.666c-.462 0-.824.225-.97.549-.203.447-.387.98-.43 1.486-.02.225.074.392.204.473.686.426 2.276 1.159 5.127 1.159 2.85 0 4.44-.733 5.126-1.16.13-.08.224-.247.204-.473-.043-.505-.227-1.038-.43-1.485-.146-.324-.508-.549-.97-.549H3.07zM.885 9.664c.406-.894 1.31-1.331 2.185-1.331h7.861c.874 0 1.78.437 2.185 1.331.232.513.482 1.203.544 1.922.056.655-.216 1.339-.83 1.72-.902.56-2.736 1.36-5.83 1.36-3.093 0-4.927-.8-5.83-1.36-.613-.381-.885-1.065-.829-1.72.062-.719.312-1.409.544-1.922z"/></svg><svg viewBox="0 0 16 16" id="search" xmlns="http://www.w3.org/2000/svg"><path fill-rule="evenodd" clip-rule="evenodd" d="M7.25 2.166a5.083 5.083 0 100 10.167 5.083 5.083 0 000-10.167zM.835 7.25a6.417 6.417 0 1111.399 4.044l2.739 2.734a.667.667 0 11-.942.944l-2.74-2.736A6.417 6.417 0 01.834 7.25z"/></svg><svg viewBox="0 0 122.88 117.19" id="star2" xmlns="http://www.w3.org/2000/svg"><path d="M64.39 2l15.72 36.76L120 42.33a3.2 3.2 0 011.83 5.59L91.64 74.25l8.92 39a3.2 3.2 0 01-4.87 3.4L61.44 96.19l-34.35 20.54a3.2 3.2 0 01-4.76-3.46l8.92-39L1.09 47.92A3.2 3.2 0 013 42.32l39.74-3.56L58.49 2a3.2 3.2 0 015.9 0z"/></svg></svg>