<?xml version="1.0" encoding="utf-8"?><svg viewBox="0 0 512 512" xmlns="http://www.w3.org/2000/svg" xmlns:xlink="http://www.w3.org/1999/xlink"><style>:root>svg{display:none}:root>svg:target{display:block}</style><svg viewBox="0 0 8 5" id="angle-down" xmlns="http://www.w3.org/2000/svg"><path clip-rule="evenodd" d="M7.854.146a.5.5 0 010 .708l-3.5 3.5a.5.5 0 01-.708 0l-3.5-3.5A.5.5 0 11.854.146L4 3.293 7.146.146a.5.5 0 01.708 0z"/></svg><svg viewBox="0 0 12 8" id="arrow" xmlns="http://www.w3.org/2000/svg"><path fill-rule="evenodd" clip-rule="evenodd" d="M7.862.528c.26-.26.682-.26.943 0l3 3c.26.26.26.683 0 .943l-3 3a.667.667 0 11-.943-.943l1.862-1.862H.667a.667.667 0 010-1.333h9.057L7.862 1.471a.667.667 0 010-.943z"/></svg><svg viewBox="0 0 16 16" id="bin" xmlns="http://www.w3.org/2000/svg"><path fill-rule="evenodd" clip-rule="evenodd" d="M4.832 2.5c0-.92.746-1.667 1.667-1.667h3c.92 0 1.666.746 1.666 1.667v.333H14.5a.667.667 0 110 1.333h-.834V12.5A2.667 2.667 0 0111 15.166H5A2.667 2.667 0 012.332 12.5V4.166h-.833a.667.667 0 010-1.333h3.333V2.5zm1.333.333h3.667V2.5a.333.333 0 00-.333-.334h-3a.333.333 0 00-.334.334v.333zm-2.5 1.333V12.5c0 .736.597 1.333 1.334 1.333h6c.736 0 1.333-.597 1.333-1.333V4.166H3.665zM8 5.333c.368 0 .666.298.666.667v6a.667.667 0 01-1.333 0V6c0-.369.299-.667.667-.667z"/></svg><svg viewBox="0 0 24 24" id="calendar" xmlns="http://www.w3.org/2000/svg"><path fill-rule="evenodd" clip-rule="evenodd" d="M7.5 1.25a1 1 0 011 1v.5h7v-.5a1 1 0 112 0v.5h1.25a4 4 0 014 4v12a4 4 0 01-4 4H5.25a4 4 0 01-4-4v-12a4 4 0 014-4H6.5v-.5a1 1 0 011-1zm-1 3.5H5.25a2 2 0 00-2 2V8h17.5V6.75a2 2 0 00-2-2H17.5v.5a1 1 0 11-2 0v-.5h-7v.5a1 1 0 01-2 0v-.5zM20.75 10H3.25v8.75a2 2 0 002 2h13.5a2 2 0 002-2V10z"/></svg><svg viewBox="0 0 21 20" id="cart" xmlns="http://www.w3.org/2000/svg"><path fill-rule="evenodd" clip-rule="evenodd" d="M2.88 2.758a6.884 6.884 0 00-.447-.008H.917a.917.917 0 010-1.833h1.542c.197 0 .392 0 .559.013.185.014.401.046.625.146.314.14.582.366.774.652.137.203.206.41.252.59.04.163.074.355.108.548l.004.026L5 4.148l11.93.353c.466.014.87.026 1.203.062.352.04.7.112 1.035.29.507.27.916.692 1.171 1.207.169.34.23.69.26 1.042.026.334.026.738.026 1.206v.068c0 .44 0 .82-.025 1.136-.026.336-.083.669-.237.995A2.75 2.75 0 0119.28 11.7c-.31.184-.636.273-.967.332-.312.054-.691.091-1.129.134l-8.923.863c-.448.043-.837.081-1.16.087-.344.006-.689-.02-1.034-.148a2.75 2.75 0 01-1.289-.982c-.214-.3-.331-.624-.417-.957-.08-.314-.147-.699-.224-1.142l-1.162-6.68a6.894 6.894 0 00-.086-.449h-.01zM5.32 5.99l.617 3.548c.085.487.14.8.2 1.035.058.224.103.305.132.346.107.15.257.264.43.327.047.018.137.04.369.036a14.93 14.93 0 001.05-.082l8.856-.857c.48-.046.788-.077 1.022-.118.222-.04.305-.077.348-.102a.918.918 0 00.36-.398c.021-.044.051-.13.069-.356.018-.236.019-.545.019-1.028 0-.512-.001-.841-.021-1.093-.02-.24-.052-.33-.075-.376a.916.916 0 00-.39-.402c-.044-.023-.134-.059-.373-.085a15.34 15.34 0 00-1.093-.054l-11.52-.34zm2.472 10.052a.917.917 0 100 1.833.917.917 0 000-1.833zm-2.75.917a2.75 2.75 0 115.5 0 2.75 2.75 0 01-5.5 0zm11.458-.917a.917.917 0 100 1.833.917.917 0 000-1.833zm-2.75.917a2.75 2.75 0 115.5 0 2.75 2.75 0 01-5.5 0z"/></svg><svg viewBox="0 0 10 8" id="check" xmlns="http://www.w3.org/2000/svg"><path d="M9.828.195a.73.73 0 010 .943L3.945 7.805a.54.54 0 01-.832 0L.173 4.47a.731.731 0 010-.942.54.54 0 01.831 0L3.53 6.39 8.996.195a.54.54 0 01.832 0z"/></svg><svg viewBox="0 0 16 17" id="clock" xmlns="http://www.w3.org/2000/svg"><path d="M8.666 4.833a.667.667 0 00-1.333 0v3.666c0 .177.07.347.195.472l2 2a.667.667 0 00.943-.943L8.666 8.223v-3.39z"/><path fill-rule="evenodd" clip-rule="evenodd" d="M8 1.166a7.333 7.333 0 100 14.667A7.333 7.333 0 008 1.166zM2 8.499a6 6 0 1112 0 6 6 0 01-12 0z"/></svg><svg viewBox="0 0 16 14" id="comments" xmlns="http://www.w3.org/2000/svg"><path fill-rule="evenodd" clip-rule="evenodd" d="M14.615 6.546a5.166 5.166 0 01-.653 1.858c.025.142.038.286.038.43 0 .502-.146.982-.415 1.419-.135.218-.17.473-.183.642a4.25 4.25 0 00.004.607c.016.228.044.468.076.693a13.78 13.78 0 00-.812-.212 5.819 5.819 0 00-.66-.115c-.181-.019-.443-.034-.676.042a5.425 5.425 0 01-1.668.258 5.365 5.365 0 01-1.92-.343 8.824 8.824 0 01-2.712-.291C6.085 12.748 7.818 13.5 9.666 13.5a6.76 6.76 0 002.054-.315h.006c.016 0 .062 0 .147.008.134.014.306.044.504.09.395.088.839.22 1.184.33a1.024 1.024 0 001.313-1.152c-.056-.32-.115-.711-.138-1.05a2.96 2.96 0 01-.004-.413.783.783 0 01.01-.083 4.009 4.009 0 00.591-2.082c0-.849-.264-1.624-.718-2.288z"/><path fill-rule="evenodd" clip-rule="evenodd" d="M3.731 3.3c-.899.687-1.398 1.589-1.398 2.534 0 .471.123.925.353 1.347.088.161.113.327.121.44.01.122.005.248-.005.365a5.847 5.847 0 01-.134.766 14.5 14.5 0 01-.255.943c.352-.128.737-.259 1.102-.365.295-.086.593-.161.858-.203.228-.036.56-.072.845.027a6.48 6.48 0 002.115.347c1.432 0 2.703-.445 3.602-1.132.899-.688 1.398-1.59 1.398-2.535 0-.945-.5-1.847-1.398-2.535-.9-.687-2.17-1.132-3.602-1.132-1.431 0-2.703.445-3.602 1.132zm-.81-1.06C4.073 1.36 5.635.834 7.333.834s3.26.526 4.412 1.406c1.152.881 1.921 2.146 1.921 3.594s-.769 2.713-1.921 3.594c-1.152.88-2.714 1.406-4.412 1.406-.895 0-1.75-.146-2.527-.412 0 .003-.064-.004-.225.022-.186.03-.423.087-.693.165a20.59 20.59 0 00-1.599.558c-.796.31-1.606-.455-1.338-1.269.142-.432.31-.977.419-1.448.055-.237.09-.436.104-.584a1.16 1.16 0 00.005-.114A4.117 4.117 0 011 5.834c0-1.448.77-2.713 1.922-3.594z"/></svg><svg viewBox="0 0 448 512" id="compress" xmlns="http://www.w3.org/2000/svg"><!--! Font Awesome Pro 6.4.0 by @fontawesome - https://fontawesome.com License - https://fontawesome.com/license (Commercial License) Copyright 2023 Fonticons, Inc.--><path d="M160 64c0-17.7-14.3-32-32-32S96 46.3 96 64v64H32c-17.7 0-32 14.3-32 32s14.3 32 32 32h96c17.7 0 32-14.3 32-32V64zM32 320c-17.7 0-32 14.3-32 32s14.3 32 32 32h64v64c0 17.7 14.3 32 32 32s32-14.3 32-32v-96c0-17.7-14.3-32-32-32H32zM352 64c0-17.7-14.3-32-32-32s-32 14.3-32 32v96c0 17.7 14.3 32 32 32h96c17.7 0 32-14.3 32-32s-14.3-32-32-32h-64V64zm-32 256c-17.7 0-32 14.3-32 32v96c0 17.7 14.3 32 32 32s32-14.3 32-32v-64h64c17.7 0 32-14.3 32-32s-14.3-32-32-32h-96z"/></svg><svg viewBox="0 0 24 24" id="convert" xmlns="http://www.w3.org/2000/svg"><path fill-rule="evenodd" clip-rule="evenodd" d="M2.1 2a1 1 0 011 1v4.436A9.999 9.999 0 0112 2c4.355 0 8.058 2.784 9.43 6.667a1 1 0 11-1.885.666A8.004 8.004 0 005.07 8H8.1a1 1 0 110 2h-6a1 1 0 01-1-1V3a1 1 0 011-1zm1.077 12.057a1 1 0 011.276.61A8.004 8.004 0 0018.928 16h-3.03a1 1 0 110-2h6a1 1 0 011 1v6a1 1 0 11-2 0v-4.436a9.999 9.999 0 01-8.9 5.436 10 10 0 01-9.43-6.667 1 1 0 01.609-1.276z"/></svg><svg viewBox="0 0 16 17" id="cross" xmlns="http://www.w3.org/2000/svg"><path fill-rule="evenodd" clip-rule="evenodd" d="M2.861 3.362c.26-.26.683-.26.943 0L8 7.558l4.196-4.196a.667.667 0 01.942.943L8.942 8.5l4.195 4.196a.667.667 0 11-.942.942L7.999 9.443l-4.195 4.195a.667.667 0 01-.943-.942L7.057 8.5 2.86 4.305a.667.667 0 010-.943z"/></svg><svg viewBox="0 0 16 15" id="dislike" xmlns="http://www.w3.org/2000/svg"><path fill-rule="evenodd" clip-rule="evenodd" d="M6.566 13.334c.093 0 .18-.05.227-.13l.004-.007L9.854 8.24V1.667H4.13a.262.262 0 00-.255.205l-.003.01-1.7 6.64a.262.262 0 00.258.312h2.59c.435 0 .874.145 1.194.457.336.328.492.798.392 1.304l-.48 2.426a.262.262 0 00.258.313h.182zm4.622-11.667v6.095h2.362c.144 0 .26-.116.262-.26l.042-5.571a.262.262 0 00-.262-.264h-2.405zm-.295 7.429l-2.954 4.788a1.595 1.595 0 01-1.373.783h-.182a1.595 1.595 0 01-1.565-1.905l.479-2.425a.14.14 0 00.002-.067.058.058 0 00-.017-.025c-.028-.027-.111-.078-.262-.078H2.43A1.595 1.595 0 01.872 8.226l.003-.01 1.7-6.645A1.595 1.595 0 014.13.334h9.462c.886 0 1.602.721 1.595 1.607l-.042 5.571a1.595 1.595 0 01-1.595 1.584h-2.657z"/></svg><svg viewBox="0 0 448 512" id="expand" xmlns="http://www.w3.org/2000/svg"><!--! Font Awesome Pro 6.4.0 by @fontawesome - https://fontawesome.com License - https://fontawesome.com/license (Commercial License) Copyright 2023 Fonticons, Inc.--><path d="M32 32C14.3 32 0 46.3 0 64v96c0 17.7 14.3 32 32 32s32-14.3 32-32V96h64c17.7 0 32-14.3 32-32s-14.3-32-32-32H32zm32 320c0-17.7-14.3-32-32-32S0 334.3 0 352v96c0 17.7 14.3 32 32 32h96c17.7 0 32-14.3 32-32s-14.3-32-32-32H64v-64zM320 32c-17.7 0-32 14.3-32 32s14.3 32 32 32h64v64c0 17.7 14.3 32 32 32s32-14.3 32-32V64c0-17.7-14.3-32-32-32h-96zm128 320c0-17.7-14.3-32-32-32s-32 14.3-32 32v64h-64c-17.7 0-32 14.3-32 32s14.3 32 32 32h96c17.7 0 32-14.3 32-32v-96z"/></svg><svg viewBox="0 0 16 16" id="eye" xmlns="http://www.w3.org/2000/svg"><path d="M1.76 5.679c1.803-1.504 3.878-2.346 6.073-2.346 2.194 0 4.27.842 6.073 2.346a.667.667 0 00.854-1.024C12.755 2.982 10.386 2 7.833 2S2.91 2.982.906 4.655a.667.667 0 10.854 1.024z"/><path fill-rule="evenodd" clip-rule="evenodd" d="M2.733 6.46c1.2-1.013 2.91-1.96 4.85-1.96 1.94 0 3.65.947 4.85 1.96.604.51 1.1 1.054 1.45 1.54.174.242.32.48.425.7.096.203.191.459.191.717 0 .257-.095.513-.191.716-.105.22-.25.458-.426.7a8.856 8.856 0 01-1.45 1.541c-1.199 1.012-2.909 1.96-4.85 1.96-1.94 0-3.65-.948-4.849-1.96a8.852 8.852 0 01-1.45-1.54 4.632 4.632 0 01-.425-.701C.76 9.93.666 9.674.666 9.417c0-.258.095-.514.192-.716.105-.221.25-.459.425-.701.35-.486.846-1.03 1.45-1.54zm-.729 2.957a.995.995 0 00.058.143c.061.13.161.298.303.494.282.392.702.857 1.228 1.301C4.656 12.253 6.071 13 7.583 13c1.511 0 2.926-.747 3.989-1.645.527-.444.946-.91 1.229-1.3.141-.197.241-.365.303-.495.035-.074.05-.12.057-.143a1.015 1.015 0 00-.057-.144 3.322 3.322 0 00-.303-.494 7.524 7.524 0 00-1.229-1.3 8.276 8.276 0 00-.715-.542 3.417 3.417 0 11-6.548 0 8.23 8.23 0 00-.716.541 7.57 7.57 0 00-1.228 1.301 3.323 3.323 0 00-.303.494 1.01 1.01 0 00-.058.144zm3.495-1.5a2.083 2.083 0 114.167 0 2.083 2.083 0 01-4.167 0z"/></svg><svg viewBox="0 0 16 16" id="facebook" xmlns="http://www.w3.org/2000/svg"><path d="M11.708.67L9.856.665c-2.08 0-3.424 1.417-3.424 3.61V5.94H4.57a.295.295 0 00-.29.299V8.65c0 .165.13.3.29.3h1.862v6.084c0 .165.13.299.291.299h2.429c.16 0 .291-.134.291-.3V8.95h2.177c.16 0 .291-.134.291-.299V6.24c0-.08-.03-.155-.084-.212a.287.287 0 00-.206-.087H9.443V4.529c0-.678.157-1.022 1.017-1.022h1.248c.16 0 .29-.135.29-.3V.968a.295.295 0 00-.29-.299z"/></svg><svg viewBox="0 0 24 24" id="file" xmlns="http://www.w3.org/2000/svg"><path fill-rule="evenodd" clip-rule="evenodd" d="M8 13.5a1 1 0 011-1h6a1 1 0 110 2H9a1 1 0 01-1-1zm0 3.75a1 1 0 011-1h3a1 1 0 110 2H9a1 1 0 01-1-1z"/><path fill-rule="evenodd" clip-rule="evenodd" d="M9.043 1.543a1 1 0 01.707-.293h6.75a4 4 0 014 4v13.5a4 4 0 01-4 4h-9a4 4 0 01-4-4V7.5a1 1 0 01.293-.707l5.25-5.25zM9.5 3.914V7.25H6.164L9.5 3.914zm-4 5.336v9.5a2 2 0 002 2h9a2 2 0 002-2V5.25a2 2 0 00-2-2h-5v5a1 1 0 01-1 1h-5z"/></svg><svg viewBox="0 0 17 16" id="filter" xmlns="http://www.w3.org/2000/svg"><path fill-rule="evenodd" clip-rule="evenodd" d="M4.833 6.333c.368 0 .666.298.666.667v7.5a.667.667 0 01-1.333 0V7c0-.369.298-.667.667-.667zm0-5.5c.368 0 .666.298.666.667v2a.667.667 0 01-1.333 0v-2c0-.369.298-.667.667-.667z"/><path fill-rule="evenodd" clip-rule="evenodd" d="M1.166 4.833a2 2 0 012-2h3.333a2 2 0 012 2v.833a2 2 0 01-2 2H3.166a2 2 0 01-2-2v-.833zm2-.667a.667.667 0 00-.667.667v.833c0 .369.299.667.667.667h3.333a.667.667 0 00.667-.667v-.833a.667.667 0 00-.667-.667H3.166zm9 7.667c.368 0 .667.299.667.667v2a.667.667 0 01-1.334 0v-2c0-.368.299-.667.667-.667zm0-11c.368 0 .667.298.667.667V9a.667.667 0 01-1.334 0V1.5c0-.369.299-.667.667-.667z"/><path fill-rule="evenodd" clip-rule="evenodd" d="M8.5 10.333a2 2 0 012-2h3.333a2 2 0 012 2v.833a2 2 0 01-2 2h-3.334a2 2 0 01-2-2v-.833zm2-.667a.667.667 0 00-.667.667v.833c0 .368.298.667.666.667h3.334a.667.667 0 00.666-.667v-.833a.667.667 0 00-.666-.667h-3.334z"/></svg><svg viewBox="0 0 122.88 122.87" id="full-screen" xmlns="http://www.w3.org/2000/svg"><path d="M122.88 77.63v41.12a4.12 4.12 0 01-4.12 4.12H77.33v-9.62h35.95V77.63h9.6zM77.39 9.53V0h41.37a4.12 4.12 0 014.12 4.12V45.3h-9.63V9.53H77.39zM9.63 45.24H0V4.12C0 1.85 1.85 0 4.12 0h41v9.64H9.63v35.6zm35.44 68.03v9.6H4.12c-2.28 0-4.12-1.85-4.12-4.13V77.57h9.63v35.71h35.44v-.01z"/></svg><svg viewBox="0 0 24 24" id="google" xmlns="http://www.w3.org/2000/svg"><path d="M12.211 10.502h9.876c.108.608.163 1.19.163 1.743 0 1.97-.413 3.73-1.24 5.279a8.95 8.95 0 01-3.534 3.63c-1.53.871-3.285 1.307-5.265 1.307-1.426 0-2.783-.274-4.073-.824-1.29-.55-2.402-1.291-3.337-2.227a10.46 10.46 0 01-2.227-3.337A10.283 10.283 0 011.75 12c0-1.425.275-2.783.824-4.073.55-1.289 1.292-2.401 2.227-3.337.935-.935 2.048-1.677 3.337-2.227 1.29-.55 2.647-.824 4.073-.824 2.724 0 5.063.913 7.015 2.738L16.38 7.015c-1.117-1.08-2.506-1.621-4.168-1.621a6.25 6.25 0 00-3.249.885A6.524 6.524 0 006.6 8.683 6.547 6.547 0 005.727 12c0 1.199.291 2.305.872 3.317a6.524 6.524 0 002.363 2.404 6.25 6.25 0 003.25.886c.79 0 1.516-.11 2.178-.327.663-.218 1.208-.49 1.635-.818.427-.327.8-.699 1.117-1.117a5.2 5.2 0 00.701-1.185c.15-.372.253-.726.307-1.062h-5.939v-3.596z"/></svg><svg viewBox="0 0 16 16" id="hanger" xmlns="http://www.w3.org/2000/svg"><g clip-path="url(#ata)"><path d="M15.222 10.74l-5.76-3.601a.632.632 0 00-.335-.096h-.495v-.269a2.333 2.333 0 001.697-2.242A2.332 2.332 0 008 2.203a2.332 2.332 0 00-2.33 2.33.632.632 0 001.265 0 1.066 1.066 0 012.13 0c0 .586-.478 1.064-1.065 1.064a.632.632 0 00-.632.632v.814h-.495a.632.632 0 00-.335.096l-5.76 3.6a1.656 1.656 0 00.877 3.057h12.69a1.656 1.656 0 00.877-3.057zm-.877 1.793H1.655a.39.39 0 01-.207-.722l5.607-3.504h1.89l5.607 3.504a.39.39 0 01-.207.722z"/></g><defs><clipPath id="ata"><rect/></clipPath></defs></svg><svg viewBox="0 0 20 18" id="heart" xmlns="http://www.w3.org/2000/svg"><path fill-rule="evenodd" clip-rule="evenodd" d="M10 15.59c-3.833-2.184-5.971-4.353-7.005-6.235-1.058-1.927-.965-3.55-.378-4.702 1.206-2.367 4.638-3.124 6.728-.48L10 5l.654-.827c2.09-2.644 5.522-1.887 6.729.48.587 1.152.68 2.775-.379 4.701-1.034 1.883-3.171 4.053-7.004 6.235zm0-13.168C7.057-.373 2.72.782 1.131 3.897c-.871 1.709-.883 3.918.402 6.26 1.275 2.32 3.815 4.77 8.062 7.117l.403.223.403-.223c4.247-2.347 6.788-4.797 8.062-7.117 1.286-2.342 1.274-4.551.403-6.26C17.279.782 12.94-.373 9.999 2.422z"/></svg><svg viewBox="0 0 512 512" id="heart-full" xmlns="http://www.w3.org/2000/svg"><!--! Font Awesome Pro 6.4.0 by @fontawesome - https://fontawesome.com License - https://fontawesome.com/license (Commercial License) Copyright 2023 Fonticons, Inc.--><path d="M47.6 300.4l180.7 168.7c7.5 7 17.4 10.9 27.7 10.9s20.2-3.9 27.7-10.9l180.7-168.7c30.4-28.3 47.6-68 47.6-109.5v-5.8c0-69.9-50.5-129.5-119.4-141-45.6-7.6-92 7.3-124.6 39.9l-12 12-12-12c-32.6-32.6-79-47.5-124.6-39.9C50.5 55.6 0 115.2 0 185.1v5.8c0 41.5 17.2 81.2 47.6 109.5z"/></svg><svg viewBox="0 0 16 17" id="home" xmlns="http://www.w3.org/2000/svg"><path d="M8.523 3.28a2 2 0 00-1.045 0c-.356.097-.702.35-1.687 1.117L4.057 5.745c-.634.493-.847.666-.998.87a2 2 0 00-.318.65c-.068.244-.074.518-.074 1.321V13c0 .513.008.622.03.693.064.213.23.38.444.445.07.021.18.028.693.028h.533A.667.667 0 005 13.531V11.5a3 3 0 016 0v1.916c0 .086.001.104.002.116.016.343.29.617.633.633l.116.001h.416c.514 0 .623-.007.694-.028a.667.667 0 00.444-.445c.022-.07.03-.18.03-.693V8.586c0-.803-.007-1.077-.075-1.321a2.002 2.002 0 00-.318-.65c-.15-.204-.363-.377-.998-.87l-1.733-1.348C9.225 3.63 8.88 3.377 8.523 3.28zM7.13 1.995a3.333 3.333 0 011.742 0c.649.175 1.218.619 2.044 1.262l.114.088 1.733 1.348.07.055c.537.417.908.705 1.181 1.075.241.326.42.693.53 1.083.124.443.124.912.123 1.592v4.587c.001.38.001.71-.086.996a2 2 0 01-1.333 1.334c-.287.087-.616.086-.997.086h-.514c-.064 0-.118 0-.168-.003a2 2 0 01-1.902-2.067V11.5a1.667 1.667 0 00-3.333 0v1.93c0 .064 0 .118-.002.168a2 2 0 01-1.9 1.9c-.05.002-.104.002-.167.002H3.75c-.38 0-.71 0-.996-.086A2 2 0 011.42 14.08c-.087-.287-.086-.616-.086-.996V8.496c0-.679 0-1.148.123-1.59.11-.391.29-.758.53-1.084.274-.37.645-.658 1.18-1.075l.072-.055 1.733-1.348.113-.088c.826-.643 1.396-1.087 2.045-1.262z"/></svg><svg viewBox="0 0 21 20" id="instagram" xmlns="http://www.w3.org/2000/svg"><path d="M19.98 5.88c-.046-1.063-.218-1.793-.464-2.426a4.88 4.88 0 00-1.157-1.774 4.922 4.922 0 00-1.77-1.153C15.952.281 15.226.11 14.163.063 13.093.012 12.753 0 10.037 0 7.322 0 6.982.012 5.915.059 4.853.105 4.122.277 3.49.523A4.88 4.88 0 001.715 1.68 4.924 4.924 0 00.563 3.45C.316 4.087.145 4.813.098 5.876c-.051 1.07-.063 1.41-.063 4.126 0 2.715.012 3.055.059 4.122.047 1.063.219 1.793.465 2.426a4.932 4.932 0 001.156 1.774 4.92 4.92 0 001.77 1.152c.637.247 1.364.419 2.426.465 1.067.047 1.407.059 4.122.059 2.716 0 3.056-.012 4.122-.059 1.063-.046 1.793-.218 2.426-.464a5.116 5.116 0 002.927-2.927c.246-.637.418-1.364.465-2.426.047-1.067.058-1.407.058-4.122s-.004-3.055-.05-4.122zm-1.8 8.166c-.044.977-.208 1.504-.345 1.856a3.317 3.317 0 01-1.898 1.898c-.352.137-.883.301-1.856.344-1.055.047-1.371.059-4.04.059-2.668 0-2.989-.012-4.04-.059-.977-.043-1.504-.207-1.856-.344a3.077 3.077 0 01-1.148-.746 3.11 3.11 0 01-.747-1.148c-.136-.352-.3-.883-.343-1.856-.047-1.055-.059-1.372-.059-4.04 0-2.669.012-2.99.059-4.04.043-.977.207-1.504.343-1.856A3.04 3.04 0 013 2.965a3.105 3.105 0 011.15-.746c.35-.137.882-.3 1.855-.344 1.055-.046 1.372-.058 4.04-.058 2.672 0 2.989.012 4.04.058.977.043 1.504.207 1.856.344.433.16.828.414 1.148.746.332.325.586.715.747 1.15.136.35.3.882.343 1.855.047 1.055.059 1.371.059 4.04 0 2.668-.012 2.98-.059 4.036z"/><path d="M10.037 4.864A5.139 5.139 0 004.9 10.002a5.139 5.139 0 105.138-5.138zm0 8.47a3.333 3.333 0 11.001-6.666 3.333 3.333 0 010 6.667zm6.541-8.673a1.2 1.2 0 11-2.4 0 1.2 1.2 0 012.4 0z"/></svg><svg viewBox="0 0 24 24" id="layouts" xmlns="http://www.w3.org/2000/svg"><path d="M11.553 1.106a1 1 0 01.894 0l10 5a1 1 0 010 1.788l-10 5a1 1 0 01-.894 0l-10-5a1 1 0 010-1.788l10-5zM4.236 7L12 10.882 19.764 7 12 3.118 4.236 7z"/><path d="M1.106 11.553a1 1 0 011.341-.447L12 15.882l9.553-4.776a1 1 0 11.894 1.788l-10 5a1 1 0 01-.894 0l-10-5a1 1 0 01-.447-1.341z"/><path d="M1.106 16.553a1 1 0 011.341-.447L12 20.882l9.553-4.776a1 1 0 11.894 1.788l-10 5a1 1 0 01-.894 0l-10-5a1 1 0 01-.447-1.341z"/></svg><svg viewBox="0 0 16 15" id="like" xmlns="http://www.w3.org/2000/svg"><path fill-rule="evenodd" clip-rule="evenodd" d="M9.453 1.666a.263.263 0 00-.226.13l-.004.007L6.165 6.76v6.573h5.724c.123 0 .23-.085.256-.205l.002-.01 1.7-6.64a.262.262 0 00-.257-.312h-2.591c-.434 0-.874-.145-1.194-.457a1.406 1.406 0 01-.392-1.304l.48-2.426a.262.262 0 00-.257-.313h-.183zM4.832 13.333V7.238H2.47a.262.262 0 00-.262.26l-.043 5.571a.262.262 0 00.262.264h2.405zm.295-7.429L8.08 1.116A1.595 1.595 0 019.453.333h.183c1.005 0 1.76.918 1.565 1.904l-.48 2.426a.14.14 0 00-.001.067.058.058 0 00.017.025c.028.027.11.078.262.078h2.591c1.02 0 1.779.945 1.557 1.941l-.002.01-1.701 6.645a1.595 1.595 0 01-1.555 1.237H2.427A1.595 1.595 0 01.832 13.06l.043-5.571A1.595 1.595 0 012.47 5.904h2.657z"/></svg><svg viewBox="0 0 24 24" id="linkedin" xmlns="http://www.w3.org/2000/svg"><path d="M21.995 22H22v-7.336c0-3.588-.773-6.352-4.968-6.352-2.016 0-3.37 1.106-3.922 2.155h-.058v-1.82H9.074v13.352h4.142v-6.611c0-1.741.33-3.425 2.486-3.425 2.124 0 2.156 1.987 2.156 3.536V22h4.137zM2.33 8.648h4.147V22H2.33V8.648zM4.402 2A2.402 2.402 0 002 4.402c0 1.325 1.076 2.424 2.402 2.424 1.325 0 2.401-1.098 2.401-2.424A2.403 2.403 0 004.402 2z"/></svg><svg viewBox="0 0 20 20" id="logout" xmlns="http://www.w3.org/2000/svg"><path d="M13.75 17.291a.833.833 0 010 1.667H5.21a4.167 4.167 0 01-4.167-4.167V5.208A4.167 4.167 0 015.21 1.04h8.542a.833.833 0 010 1.667H5.209a2.5 2.5 0 00-2.5 2.5v9.583a2.5 2.5 0 002.5 2.5h8.542z"/><path d="M4.792 10c0 .22.088.432.244.589l3.75 3.75a.833.833 0 001.179-1.179l-2.328-2.327h10.489a.833.833 0 000-1.667H7.637l2.328-2.327A.833.833 0 008.786 5.66l-3.75 3.75a.833.833 0 00-.244.59z"/></svg><svg viewBox="0 0 24 24" id="mail" xmlns="http://www.w3.org/2000/svg"><path fill-rule="evenodd" clip-rule="evenodd" d="M22.75 18V7a3 3 0 00-3-3H4.25a3 3 0 00-3 3v11a3 3 0 003 3h15.5a3 3 0 003-3zm-2-8.74V18a1 1 0 01-1 1H4.25a1 1 0 01-1-1V9.26l7.063 4.802a3 3 0 003.374 0L20.75 9.26zm-.011-2.411A1 1 0 0019.75 6H4.25a1 1 0 00-.989.848l8.177 5.56a1 1 0 001.124 0l8.177-5.56z"/></svg><svg viewBox="0 0 24 24" id="messenger" xmlns="http://www.w3.org/2000/svg"><path d="M12 2C6.478 2 2 6.145 2 11.259c0 2.913 1.454 5.512 3.726 7.21V22l3.405-1.869c.909.252 1.871.388 2.869.388 5.523 0 10-4.145 10-9.259C22 6.146 17.523 2 12 2zm.994 12.469l-2.546-2.716-4.97 2.716 5.467-5.803 2.609 2.716 4.906-2.716-5.466 5.803z"/></svg><svg viewBox="0 0 20 20" id="outline" xmlns="http://www.w3.org/2000/svg"><path fill-rule="evenodd" clip-rule="evenodd" d="M10.001 6.458a1.667 1.667 0 100 3.333 1.667 1.667 0 000-3.333zM6.668 8.124a3.333 3.333 0 116.667 0 3.333 3.333 0 01-6.667 0z"/><path fill-rule="evenodd" clip-rule="evenodd" d="M10.001 2.708c-3.016 0-5.416 2.363-5.416 5.224 0 2.332 1.401 4.688 2.934 6.54A23.268 23.268 0 0010 17.033a23.27 23.27 0 002.483-2.56c1.532-1.852 2.934-4.208 2.934-6.54 0-2.86-2.4-5.224-5.417-5.224zm0 15.416l-.516.655-.002-.002-.005-.004-.016-.013a13.248 13.248 0 01-.268-.222 24.936 24.936 0 01-2.96-3.003c-1.593-1.926-3.316-4.667-3.316-7.603 0-3.83 3.196-6.891 7.083-6.891 3.888 0 7.084 3.06 7.084 6.891 0 2.936-1.724 5.677-3.317 7.603a24.928 24.928 0 01-2.96 3.003c-.089.076-.16.135-.21.175l-.058.047-.016.013-.004.004-.002.001s-.001.001-.517-.654zm0 0l.516.655a.834.834 0 01-1.032 0l.516-.655z"/></svg><svg viewBox="0 0 14 15" id="person" xmlns="http://www.w3.org/2000/svg"><path clip-rule="evenodd" d="M7 1.666a2.333 2.333 0 100 4.667 2.333 2.333 0 000-4.667zM3.335 4a3.667 3.667 0 117.333 0 3.667 3.667 0 01-7.333 0z"/><path d="M3.07 9.666c-.462 0-.824.225-.97.549-.203.447-.387.98-.43 1.486-.02.225.074.392.204.473.686.426 2.276 1.159 5.127 1.159 2.85 0 4.44-.733 5.126-1.16.13-.08.224-.247.204-.473-.043-.505-.227-1.038-.43-1.485-.146-.324-.508-.549-.97-.549H3.07zM.885 9.664c.406-.894 1.31-1.331 2.185-1.331h7.861c.874 0 1.78.437 2.185 1.331.232.513.482 1.203.544 1.922.056.655-.216 1.339-.83 1.72-.902.56-2.736 1.36-5.83 1.36-3.093 0-4.927-.8-5.83-1.36-.613-.381-.885-1.065-.829-1.72.062-.719.312-1.409.544-1.922z"/></svg><svg viewBox="0 0 24 24" id="phone" xmlns="http://www.w3.org/2000/svg"><path d="M8.5 2.922a1.5 1.5 0 00-1.5 1.5v15.156a1.5 1.5 0 001.5 1.5h7a1.5 1.5 0 001.5-1.5V4.422a1.5 1.5 0 00-1.5-1.5h-.083l-.244.584a1 1 0 01-.923.616h-4.5a1 1 0 01-.923-.616l-.244-.584H8.5zM5 4.422a3.5 3.5 0 013.5-3.5h7a3.5 3.5 0 013.5 3.5v15.156a3.5 3.5 0 01-3.5 3.5h-7a3.5 3.5 0 01-3.5-3.5V4.422z"/></svg><svg viewBox="0 0 16 16" id="pinterest" xmlns="http://www.w3.org/2000/svg"><path d="M8.2.666C4.153.666 2 3.243 2 6.051c0 1.303.733 2.927 1.907 3.443.334.15.29-.033.578-1.127a.258.258 0 00-.063-.255c-1.677-1.927-.327-5.888 3.54-5.888 5.595 0 4.55 7.689.973 7.689-.922 0-1.609-.719-1.391-1.608.263-1.06.779-2.198.779-2.96 0-1.925-2.887-1.64-2.887.91 0 .787.281 1.32.281 1.32s-.929 3.724-1.1 4.42c-.293 1.179.039 3.086.067 3.25.018.09.12.12.178.045.091-.12 1.214-1.71 1.528-2.859l.584-2.117c.31.555 1.202 1.02 2.153 1.02C11.956 11.333 14 8.863 14 5.8 13.99 2.864 11.459.666 8.2.666z"/></svg><svg viewBox="0 0 16 14" id="reply" xmlns="http://www.w3.org/2000/svg"><path d="M.665 6.83L6.761.166v3.975h1.295c4.019 0 7.276 3.247 7.276 7.252V13.5l-.576-.628a10.344 10.344 0 00-7.629-3.355h-.366v3.974L.665 6.83z"/></svg><svg viewBox="0 0 16 16" id="search" xmlns="http://www.w3.org/2000/svg"><path fill-rule="evenodd" clip-rule="evenodd" d="M7.25 2.166a5.083 5.083 0 100 10.167 5.083 5.083 0 000-10.167zM.835 7.25a6.417 6.417 0 1111.399 4.044l2.739 2.734a.667.667 0 11-.942.944l-2.74-2.736A6.417 6.417 0 01.834 7.25z"/></svg><svg viewBox="0 0 20 19" id="star" xmlns="http://www.w3.org/2000/svg"><path fill-rule="evenodd" clip-rule="evenodd" d="M8.475 1.835C9.054.5 10.947.5 11.526 1.835l1.752 4.04 4.382.417c1.449.138 2.034 1.938.943 2.902l-3.3 2.913.957 4.297c.316 1.42-1.215 2.534-2.469 1.794l-3.79-2.238-3.791 2.238c-1.253.74-2.785-.373-2.469-1.794l.957-4.297-3.3-2.913C.308 8.23.893 6.43 2.341 6.292l4.383-.418 1.751-4.039zm3.277 4.7l-1.751-4.038-1.752 4.039a1.663 1.663 0 01-1.368.994L2.5 7.946l3.3 2.914c.454.4.654 1.017.522 1.608l-.957 4.297 3.791-2.238a1.663 1.663 0 011.691 0l3.79 2.238-.956-4.297a1.663 1.663 0 01.522-1.608l3.3-2.914-4.382-.418a1.663 1.663 0 01-1.368-.993z"/></svg><svg viewBox="0 0 122.88 117.19" id="star2" xmlns="http://www.w3.org/2000/svg"><path d="M64.39 2l15.72 36.76L120 42.33a3.2 3.2 0 011.83 5.59L91.64 74.25l8.92 39a3.2 3.2 0 01-4.87 3.4L61.44 96.19l-34.35 20.54a3.2 3.2 0 01-4.76-3.46l8.92-39L1.09 47.92A3.2 3.2 0 013 42.32l39.74-3.56L58.49 2a3.2 3.2 0 015.9 0z"/></svg><svg viewBox="0 0 16 16" id="twitter" xmlns="http://www.w3.org/2000/svg"><path d="M15 3.849a5.935 5.935 0 01-1.65.433 2.786 2.786 0 001.263-1.52 5.948 5.948 0 01-1.825.667 2.924 2.924 0 00-2.096-.868C9.106 2.56 7.82 3.79 7.82 5.31c0 .215.026.425.075.626-2.387-.114-4.503-1.21-5.92-2.873a2.641 2.641 0 00-.388 1.382c0 .954.507 1.796 1.277 2.289a2.97 2.97 0 01-1.3-.345v.034c0 1.332.99 2.444 2.303 2.697a3.03 3.03 0 01-.757.096c-.185 0-.365-.018-.54-.051.365 1.093 1.425 1.888 2.682 1.91a5.926 5.926 0 01-3.567 1.175A6.37 6.37 0 011 12.212a8.382 8.382 0 004.402 1.237c5.283 0 8.171-4.19 8.171-7.823l-.01-.356A5.608 5.608 0 0015 3.849z"/></svg><svg viewBox="0 0 24 24" id="upload" xmlns="http://www.w3.org/2000/svg"><path fill-rule="evenodd" clip-rule="evenodd" d="M11.293 1.543a1 1 0 011.414 0l4.5 4.5a1 1 0 01-1.414 1.414L13 4.664V17.25a1 1 0 11-2 0V4.664L8.207 7.457a1 1 0 01-1.414-1.414l4.5-4.5zM2.25 14a1 1 0 011 1v3.75a2 2 0 002 2h13.5a2 2 0 002-2V15a1 1 0 112 0v3.75a4 4 0 01-4 4H5.25a4 4 0 01-4-4V15a1 1 0 011-1z"/></svg><svg viewBox="0 0 22 20" id="wallet" xmlns="http://www.w3.org/2000/svg"><path fill-rule="evenodd" clip-rule="evenodd" d="M3.25 2.75a1 1 0 00-1 1v1.5h17.5v-1.5a1 1 0 00-1-1H3.25zm16.5 4.5H2.25v2.5h17.5v-2.5zm0 4.5H2.25v4.5a1 1 0 001 1h15.5a1 1 0 001-1v-4.5zm-19.5-8a3 3 0 013-3h15.5a3 3 0 013 3v12.5a3 3 0 01-3 3H3.25a3 3 0 01-3-3V3.75z"/></svg><svg viewBox="0 0 18 18" id="wallet-2" xmlns="http://www.w3.org/2000/svg"><path fill-rule="evenodd" clip-rule="evenodd" d="M4 1.708c-.921 0-1.667.746-1.667 1.666v11.25c0 .92.746 1.667 1.666 1.667h10c.92 0 1.667-.746 1.667-1.667V3.374c0-.92-.746-1.666-1.667-1.666H4zM.665 3.374A3.333 3.333 0 013.999.041h10a3.333 3.333 0 013.334 3.333v11.25a3.333 3.333 0 01-3.334 3.334H4a3.333 3.333 0 01-3.333-3.334V3.374zm12.083-.208c.46 0 .834.373.834.833v1.25a4.583 4.583 0 11-9.167 0V4a.833.833 0 011.667 0v1.25a2.917 2.917 0 005.833 0V4c0-.46.373-.833.833-.833z"/></svg><svg viewBox="0 0 16 16" id="youtube" xmlns="http://www.w3.org/2000/svg"><path fill-rule="evenodd" clip-rule="evenodd" d="M14.26 2.743a2.004 2.004 0 011.41 1.41c.343 1.252.33 3.862.33 3.862s0 2.596-.33 3.848a2.005 2.005 0 01-1.41 1.41c-1.252.33-6.26.33-6.26.33s-4.995 0-6.26-.343a2.005 2.005 0 01-1.41-1.41C0 10.611 0 8.002 0 8.002s0-2.597.33-3.849A2.046 2.046 0 011.74 2.73C2.992 2.4 8 2.4 8 2.4s5.008 0 6.26.343zm-3.69 5.259L6.405 10.4V5.603l4.165 2.399z"/></svg></svg>